<?xml version="1.0" encoding="UTF-8" standalone="no"?>
<!-- Created with Inkscape (http://www.inkscape.org/) -->

<svg
   xmlns:dc="http://purl.org/dc/elements/1.1/"
   xmlns:cc="http://creativecommons.org/ns#"
   xmlns:rdf="http://www.w3.org/1999/02/22-rdf-syntax-ns#"
   xmlns:svg="http://www.w3.org/2000/svg"
   xmlns="http://www.w3.org/2000/svg"
   xmlns:xlink="http://www.w3.org/1999/xlink"
   xmlns:sodipodi="http://sodipodi.sourceforge.net/DTD/sodipodi-0.dtd"
   xmlns:inkscape="http://www.inkscape.org/namespaces/inkscape"
   width="48"
   height="48"
   id="svg4453"
   version="1.1"
   inkscape:version="0.48.3.1 r9886"
   sodipodi:docname="icon.svg">
  <defs
     id="defs4455">
    <linearGradient
       id="linearGradient3775">
      <stop
         style="stop-color:#706f6f;stop-opacity:1;"
         offset="0"
         id="stop3777" />
      <stop
         style="stop-color:#1b1c1b;stop-opacity:1;"
         offset="1"
         id="stop3779" />
    </linearGradient>
    <radialGradient
       inkscape:collect="always"
       xlink:href="#linearGradient3775"
       id="radialGradient3781"
       cx="23.5"
       cy="24"
       fx="23.5"
       fy="24"
       r="23.5"
       gradientUnits="userSpaceOnUse" />
  </defs>
  <sodipodi:namedview
     id="base"
     pagecolor="#ffffff"
     bordercolor="#666666"
     borderopacity="1.0"
     inkscape:pageopacity="0.0"
     inkscape:pageshadow="2"
     inkscape:zoom="3.1288632"
     inkscape:cx="-77.770525"
     inkscape:cy="21.946203"
     inkscape:document-units="px"
     inkscape:current-layer="layer1"
     showgrid="false"
     inkscape:window-width="1400"
     inkscape:window-height="959"
     inkscape:window-x="0"
     inkscape:window-y="30"
     inkscape:window-maximized="1" />
  <metadata
     id="metadata4458">
    <rdf:RDF>
      <cc:Work
         rdf:about="">
        <dc:format>image/svg+xml</dc:format>
        <dc:type
           rdf:resource="http://purl.org/dc/dcmitype/StillImage" />
        <dc:title />
      </cc:Work>
    </rdf:RDF>
  </metadata>
  <g
     inkscape:label="Layer 1"
     inkscape:groupmode="layer"
     id="layer1">
    <rect
       style="fill:url(#radialGradient3781);fill-opacity:1;stroke:#9c9c9c;stroke-opacity:1"
       id="rect5252"
       width="46"
       height="46"
       x="0.5"
       y="1"
       ry="7.6705174" />
    <g
       id="g5435"
       transform="matrix(0.84315645,0,0,0.83074319,3.5092706,2.8465675)">
      <rect
         y="7.3766193"
         x="6.0724931"
         height="3.3302863"
         width="8.7981052"
         id="rect5266"
         style="fill:#ffffff;fill-opacity:1;stroke:none" />
      <rect
         y="7.3766193"
         x="20.090672"
         height="3.3302863"
         width="8.7981052"
         id="rect5266-9"
         style="fill:#ffffff;fill-opacity:1;stroke:none" />
    </g>
    <g
       id="g5430"
       transform="matrix(0.84315645,0,0,0.83074319,3.5092706,3.552153)">
      <rect
         y="14.778449"
         x="6.0724931"
         height="3.3302863"
         width="8.7981052"
         id="rect5266-0"
         style="fill:#ffffff;fill-opacity:1;stroke:none" />
      <rect
         y="14.778449"
         x="20.090672"
         height="3.3302863"
         width="8.7981052"
         id="rect5266-6"
         style="fill:#ffffff;fill-opacity:1;stroke:none" />
      <rect
         y="14.778449"
         x="33.953537"
         height="3.3302863"
         width="8.7981052"
         id="rect5266-3"
         style="fill:#ffffff;fill-opacity:1;stroke:none" />
    </g>
    <g
       id="g5425"
       transform="matrix(0.84315645,0,0,0.83074319,3.5092706,4.2577424)">
      <path
         transform="translate(40.354604,25.543984)"
         d="m -27.486022,-1.6985613 c 0,1.32384685 -1.07319,2.39703678 -2.397037,2.39703678 -1.323846,0 -2.397036,-1.07318993 -2.397036,-2.39703678 0,-1.3238469 1.07319,-2.3970368 2.397036,-2.3970368 1.323847,0 2.397037,1.0731899 2.397037,2.3970368 z"
         sodipodi:ry="2.3970368"
         sodipodi:rx="2.3970368"
         sodipodi:cy="-1.6985613"
         sodipodi:cx="-29.883059"
         id="path5279"
         style="fill:#ffffff;fill-opacity:1;stroke:none"
         sodipodi:type="arc" />
      <rect
         y="22.180279"
         x="20.090672"
         height="3.3302863"
         width="8.7981052"
         id="rect5266-6-4"
         style="fill:#ffffff;fill-opacity:1;stroke:none" />
      <path
         transform="translate(68.235648,25.543984)"
         d="m -27.486022,-1.6985613 c 0,1.32384685 -1.07319,2.39703678 -2.397037,2.39703678 -1.323846,0 -2.397036,-1.07318993 -2.397036,-2.39703678 0,-1.3238469 1.07319,-2.3970368 2.397036,-2.3970368 1.323847,0 2.397037,1.0731899 2.397037,2.3970368 z"
         sodipodi:ry="2.3970368"
         sodipodi:rx="2.3970368"
         sodipodi:cy="-1.6985613"
         sodipodi:cx="-29.883059"
         id="path5279-7"
         style="fill:#ffffff;fill-opacity:1;stroke:none"
         sodipodi:type="arc" />
    </g>
    <g
       id="g5439"
       transform="matrix(0.84315645,0,0,0.83074319,3.5092706,5.096084)">
      <path
         transform="translate(40.354604,32.786013)"
         d="m -27.486022,-1.6985613 c 0,1.32384685 -1.07319,2.39703678 -2.397037,2.39703678 -1.323846,0 -2.397036,-1.07318993 -2.397036,-2.39703678 0,-1.3238469 1.07319,-2.3970368 2.397036,-2.3970368 1.323847,0 2.397037,1.0731899 2.397037,2.3970368 z"
         sodipodi:ry="2.3970368"
         sodipodi:rx="2.3970368"
         sodipodi:cy="-1.6985613"
         sodipodi:cx="-29.883059"
         id="path5279-8"
         style="fill:#ffffff;fill-opacity:1;stroke:none"
         sodipodi:type="arc" />
      <path
         transform="translate(54.372783,32.786013)"
         d="m -27.486022,-1.6985613 c 0,1.32384685 -1.07319,2.39703678 -2.397037,2.39703678 -1.323846,0 -2.397036,-1.07318993 -2.397036,-2.39703678 0,-1.3238469 1.07319,-2.3970368 2.397036,-2.3970368 1.323847,0 2.397037,1.0731899 2.397037,2.3970368 z"
         sodipodi:ry="2.3970368"
         sodipodi:rx="2.3970368"
         sodipodi:cy="-1.6985613"
         sodipodi:cx="-29.883059"
         id="path5279-1"
         style="fill:#ffffff;fill-opacity:1;stroke:none"
         sodipodi:type="arc" />
      <path
         transform="translate(68.235648,32.786013)"
         d="m -27.486022,-1.6985613 c 0,1.32384685 -1.07319,2.39703678 -2.397037,2.39703678 -1.323846,0 -2.397036,-1.07318993 -2.397036,-2.39703678 0,-1.3238469 1.07319,-2.3970368 2.397036,-2.3970368 1.323847,0 2.397037,1.0731899 2.397037,2.3970368 z"
         sodipodi:ry="2.3970368"
         sodipodi:rx="2.3970368"
         sodipodi:cy="-1.6985613"
         sodipodi:cx="-29.883059"
         id="path5279-3"
         style="fill:#ffffff;fill-opacity:1;stroke:none"
         sodipodi:type="arc" />
    </g>
    <path
       sodipodi:type="arc"
       style="fill:#ffffff;fill-opacity:1;stroke:none"
       id="path5279-2"
       sodipodi:cx="-29.883059"
       sodipodi:cy="-1.6985613"
       sodipodi:rx="2.3970368"
       sodipodi:ry="2.3970368"
       d="m -27.486022,-1.6985613 a 2.3970368,2.3970368 0 1 1 -4.794073,0 2.3970368,2.3970368 0 1 1 4.794073,0 z"
       transform="matrix(0.84315645,0,0,0.83074319,37.534515,39.18745)" />
  </g>
</svg>
