<?xml version="1.0" encoding="UTF-8" standalone="no"?>
<!-- Created with Inkscape (http://www.inkscape.org/) -->
<svg xmlns:dc="http://purl.org/dc/elements/1.1/" xmlns:cc="http://creativecommons.org/ns#" xmlns:rdf="http://www.w3.org/1999/02/22-rdf-syntax-ns#" xmlns:svg="http://www.w3.org/2000/svg" xmlns="http://www.w3.org/2000/svg" xmlns:xlink="http://www.w3.org/1999/xlink" xmlns:sodipodi="http://sodipodi.sourceforge.net/DTD/sodipodi-0.dtd" xmlns:inkscape="http://www.inkscape.org/namespaces/inkscape" width="36" height="36" id="svg4453" version="1.1" inkscape:version="0.48.3.1 r9886" sodipodi:docname="icon.svg">
  <defs id="defs4455">
    <linearGradient id="linearGradient3775">
      <stop style="stop-color:#706f6f;stop-opacity:1" offset="0" id="stop3777"/>
      <stop style="stop-color:#1b1c1b;stop-opacity:1" offset="1" id="stop3779"/>
    </linearGradient>
    <radialGradient inkscape:collect="always" xlink:href="#linearGradient3775" id="radialGradient3781" cx="17.625" cy="18" fx="17.625" fy="18" r="17.625" gradientUnits="userSpaceOnUse"/>
  </defs>
  <sodipodi:namedview id="base" pagecolor="#ffffff" bordercolor="#666666" borderopacity="1.0" inkscape:pageopacity="0.0" inkscape:pageshadow="2" inkscape:zoom="3.1288632" inkscape:cx="-77.770525" inkscape:cy="21.946203" inkscape:document-units="px" inkscape:current-layer="layer1" showgrid="false" inkscape:window-width="1400" inkscape:window-height="959" inkscape:window-x="0" inkscape:window-y="30" inkscape:window-maximized="1"/>
  <metadata id="metadata4458">
    <rdf:RDF>
      <cc:Work rdf:about="">
        <dc:format>image/svg+xml</dc:format>
        <dc:type rdf:resource="http://purl.org/dc/dcmitype/StillImage"/>
        <dc:title/>
      </cc:Work>
    </rdf:RDF>
  </metadata>
  <g inkscape:label="Layer 1" inkscape:groupmode="layer" id="layer1">
    <rect style="fill:url(#radialGradient3781);fill-opacity:1;stroke:#9c9c9c;stroke-opacity:1" id="rect5252" width="34.5" height="34.5" x="0.375" y="0.75" ry="5.75288805"/>
    <g id="g5435" transform="matrix(0.84315645,0,0,0.83074319,2.63195295,2.134925625)">
      <rect y="5.532464475" x="4.554369825" height="2.497714725" width="6.5985789" id="rect5266" style="fill:#ffffff;fill-opacity:1;stroke:none"/>
      <rect y="5.532464475" x="15.068004" height="2.497714725" width="6.5985789" id="rect5266-9" style="fill:#ffffff;fill-opacity:1;stroke:none"/>
    </g>
    <g id="g5430" transform="matrix(0.84315645,0,0,0.83074319,2.63195295,2.66411475)">
      <rect y="11.08383675" x="4.554369825" height="2.497714725" width="6.5985789" id="rect5266-0" style="fill:#ffffff;fill-opacity:1;stroke:none"/>
      <rect y="11.08383675" x="15.068004" height="2.497714725" width="6.5985789" id="rect5266-6" style="fill:#ffffff;fill-opacity:1;stroke:none"/>
      <rect y="11.08383675" x="25.46515275" height="2.497714725" width="6.5985789" id="rect5266-3" style="fill:#ffffff;fill-opacity:1;stroke:none"/>
    </g>
    <g id="g5425" transform="matrix(0.84315645,0,0,0.83074319,2.63195295,3.1933068)">
      <path transform="translate(30.265953,19.157988)" d="m -20.6145165,-1.273920975 c 0,0.9928851375 -0.8048925,1.797777585 -1.79777775,1.797777585 -0.9928845,0 -1.797777,-0.8048924475 -1.797777,-1.797777585 0,-0.992885175 0.8048925,-1.7977776 1.797777,-1.7977776 0.99288525,0 1.79777775,0.804892425 1.79777775,1.7977776 z" sodipodi:ry="2.3970368" sodipodi:rx="2.3970368" sodipodi:cy="-1.6985613" sodipodi:cx="-29.883059" id="path5279" style="fill:#ffffff;fill-opacity:1;stroke:none" sodipodi:type="arc"/>
      <rect y="16.63520925" x="15.068004" height="2.497714725" width="6.5985789" id="rect5266-6-4" style="fill:#ffffff;fill-opacity:1;stroke:none"/>
      <path transform="translate(51.176736,19.157988)" d="m -20.6145165,-1.273920975 c 0,0.9928851375 -0.8048925,1.797777585 -1.79777775,1.797777585 -0.9928845,0 -1.797777,-0.8048924475 -1.797777,-1.797777585 0,-0.992885175 0.8048925,-1.7977776 1.797777,-1.7977776 0.99288525,0 1.79777775,0.804892425 1.79777775,1.7977776 z" sodipodi:ry="2.3970368" sodipodi:rx="2.3970368" sodipodi:cy="-1.6985613" sodipodi:cx="-29.883059" id="path5279-7" style="fill:#ffffff;fill-opacity:1;stroke:none" sodipodi:type="arc"/>
    </g>
    <g id="g5439" transform="matrix(0.84315645,0,0,0.83074319,2.63195295,3.822063)">
      <path transform="translate(30.265953,24.58950975)" d="m -20.6145165,-1.273920975 c 0,0.9928851375 -0.8048925,1.797777585 -1.79777775,1.797777585 -0.9928845,0 -1.797777,-0.8048924475 -1.797777,-1.797777585 0,-0.992885175 0.8048925,-1.7977776 1.797777,-1.7977776 0.99288525,0 1.79777775,0.804892425 1.79777775,1.7977776 z" sodipodi:ry="2.3970368" sodipodi:rx="2.3970368" sodipodi:cy="-1.6985613" sodipodi:cx="-29.883059" id="path5279-8" style="fill:#ffffff;fill-opacity:1;stroke:none" sodipodi:type="arc"/>
      <path transform="translate(40.77958725,24.58950975)" d="m -20.6145165,-1.273920975 c 0,0.9928851375 -0.8048925,1.797777585 -1.79777775,1.797777585 -0.9928845,0 -1.797777,-0.8048924475 -1.797777,-1.797777585 0,-0.992885175 0.8048925,-1.7977776 1.797777,-1.7977776 0.99288525,0 1.79777775,0.804892425 1.79777775,1.7977776 z" sodipodi:ry="2.3970368" sodipodi:rx="2.3970368" sodipodi:cy="-1.6985613" sodipodi:cx="-29.883059" id="path5279-1" style="fill:#ffffff;fill-opacity:1;stroke:none" sodipodi:type="arc"/>
      <path transform="translate(51.176736,24.58950975)" d="m -20.6145165,-1.273920975 c 0,0.9928851375 -0.8048925,1.797777585 -1.79777775,1.797777585 -0.9928845,0 -1.797777,-0.8048924475 -1.797777,-1.797777585 0,-0.992885175 0.8048925,-1.7977776 1.797777,-1.7977776 0.99288525,0 1.79777775,0.804892425 1.79777775,1.7977776 z" sodipodi:ry="2.3970368" sodipodi:rx="2.3970368" sodipodi:cy="-1.6985613" sodipodi:cx="-29.883059" id="path5279-3" style="fill:#ffffff;fill-opacity:1;stroke:none" sodipodi:type="arc"/>
    </g>
    <path sodipodi:type="arc" style="fill:#ffffff;fill-opacity:1;stroke:none" id="path5279-2" sodipodi:cx="-29.883059" sodipodi:cy="-1.6985613" sodipodi:rx="2.3970368" sodipodi:ry="2.3970368" d="m -20.6145165,-1.273920975 a 1.7977776,1.7977776 0 1 1 -3.59555475,0 1.7977776,1.7977776 0 1 1 3.59555475,0 z" transform="matrix(0.84315645,0,0,0.83074319,28.15088625,29.3905875)"/>
  </g>
</svg>
