<?xml version="1.0" encoding="UTF-8" standalone="no"?>
<!-- Created with Inkscape (http://www.inkscape.org/) -->
<svg xmlns:dc="http://purl.org/dc/elements/1.1/" xmlns:cc="http://creativecommons.org/ns#" xmlns:rdf="http://www.w3.org/1999/02/22-rdf-syntax-ns#" xmlns:svg="http://www.w3.org/2000/svg" xmlns="http://www.w3.org/2000/svg" xmlns:xlink="http://www.w3.org/1999/xlink" xmlns:sodipodi="http://sodipodi.sourceforge.net/DTD/sodipodi-0.dtd" xmlns:inkscape="http://www.inkscape.org/namespaces/inkscape" width="96" height="96" id="svg4453" version="1.1" inkscape:version="0.48.3.1 r9886" sodipodi:docname="icon.svg">
  <defs id="defs4455">
    <linearGradient id="linearGradient3775">
      <stop style="stop-color:#706f6f;stop-opacity:1" offset="0" id="stop3777"/>
      <stop style="stop-color:#1b1c1b;stop-opacity:1" offset="1" id="stop3779"/>
    </linearGradient>
    <radialGradient inkscape:collect="always" xlink:href="#linearGradient3775" id="radialGradient3781" cx="47" cy="48" fx="47" fy="48" r="47" gradientUnits="userSpaceOnUse"/>
  </defs>
  <sodipodi:namedview id="base" pagecolor="#ffffff" bordercolor="#666666" borderopacity="1.0" inkscape:pageopacity="0.0" inkscape:pageshadow="2" inkscape:zoom="3.1288632" inkscape:cx="-77.770525" inkscape:cy="21.946203" inkscape:document-units="px" inkscape:current-layer="layer1" showgrid="false" inkscape:window-width="1400" inkscape:window-height="959" inkscape:window-x="0" inkscape:window-y="30" inkscape:window-maximized="1"/>
  <metadata id="metadata4458">
    <rdf:RDF>
      <cc:Work rdf:about="">
        <dc:format>image/svg+xml</dc:format>
        <dc:type rdf:resource="http://purl.org/dc/dcmitype/StillImage"/>
        <dc:title/>
      </cc:Work>
    </rdf:RDF>
  </metadata>
  <g inkscape:label="Layer 1" inkscape:groupmode="layer" id="layer1">
    <rect style="fill:url(#radialGradient3781);fill-opacity:1;stroke:#9c9c9c;stroke-opacity:1" id="rect5252" width="92" height="92" x="1" y="2" ry="15.3410348"/>
    <g id="g5435" transform="matrix(0.84315645,0,0,0.83074319,7.0185412,5.693135)">
      <rect y="14.7532386" x="12.1449862" height="6.6605726" width="17.5962104" id="rect5266" style="fill:#ffffff;fill-opacity:1;stroke:none"/>
      <rect y="14.7532386" x="40.181344" height="6.6605726" width="17.5962104" id="rect5266-9" style="fill:#ffffff;fill-opacity:1;stroke:none"/>
    </g>
    <g id="g5430" transform="matrix(0.84315645,0,0,0.83074319,7.0185412,7.104306)">
      <rect y="29.556898" x="12.1449862" height="6.6605726" width="17.5962104" id="rect5266-0" style="fill:#ffffff;fill-opacity:1;stroke:none"/>
      <rect y="29.556898" x="40.181344" height="6.6605726" width="17.5962104" id="rect5266-6" style="fill:#ffffff;fill-opacity:1;stroke:none"/>
      <rect y="29.556898" x="67.907074" height="6.6605726" width="17.5962104" id="rect5266-3" style="fill:#ffffff;fill-opacity:1;stroke:none"/>
    </g>
    <g id="g5425" transform="matrix(0.84315645,0,0,0.83074319,7.0185412,8.5154848)">
      <path transform="translate(80.709208,51.087968)" d="m -54.972044,-3.3971226 c 0,2.6476937 -2.14638,4.79407356 -4.794074,4.79407356 -2.647692,0 -4.794072,-2.14637986 -4.794072,-4.79407356 0,-2.6476938 2.14638,-4.7940736 4.794072,-4.7940736 2.647694,0 4.794074,2.1463798 4.794074,4.7940736 z" sodipodi:ry="2.3970368" sodipodi:rx="2.3970368" sodipodi:cy="-1.6985613" sodipodi:cx="-29.883059" id="path5279" style="fill:#ffffff;fill-opacity:1;stroke:none" sodipodi:type="arc"/>
      <rect y="44.360558" x="40.181344" height="6.6605726" width="17.5962104" id="rect5266-6-4" style="fill:#ffffff;fill-opacity:1;stroke:none"/>
      <path transform="translate(136.471296,51.087968)" d="m -54.972044,-3.3971226 c 0,2.6476937 -2.14638,4.79407356 -4.794074,4.79407356 -2.647692,0 -4.794072,-2.14637986 -4.794072,-4.79407356 0,-2.6476938 2.14638,-4.7940736 4.794072,-4.7940736 2.647694,0 4.794074,2.1463798 4.794074,4.7940736 z" sodipodi:ry="2.3970368" sodipodi:rx="2.3970368" sodipodi:cy="-1.6985613" sodipodi:cx="-29.883059" id="path5279-7" style="fill:#ffffff;fill-opacity:1;stroke:none" sodipodi:type="arc"/>
    </g>
    <g id="g5439" transform="matrix(0.84315645,0,0,0.83074319,7.0185412,10.192168)">
      <path transform="translate(80.709208,65.572026)" d="m -54.972044,-3.3971226 c 0,2.6476937 -2.14638,4.79407356 -4.794074,4.79407356 -2.647692,0 -4.794072,-2.14637986 -4.794072,-4.79407356 0,-2.6476938 2.14638,-4.7940736 4.794072,-4.7940736 2.647694,0 4.794074,2.1463798 4.794074,4.7940736 z" sodipodi:ry="2.3970368" sodipodi:rx="2.3970368" sodipodi:cy="-1.6985613" sodipodi:cx="-29.883059" id="path5279-8" style="fill:#ffffff;fill-opacity:1;stroke:none" sodipodi:type="arc"/>
      <path transform="translate(108.745566,65.572026)" d="m -54.972044,-3.3971226 c 0,2.6476937 -2.14638,4.79407356 -4.794074,4.79407356 -2.647692,0 -4.794072,-2.14637986 -4.794072,-4.79407356 0,-2.6476938 2.14638,-4.7940736 4.794072,-4.7940736 2.647694,0 4.794074,2.1463798 4.794074,4.7940736 z" sodipodi:ry="2.3970368" sodipodi:rx="2.3970368" sodipodi:cy="-1.6985613" sodipodi:cx="-29.883059" id="path5279-1" style="fill:#ffffff;fill-opacity:1;stroke:none" sodipodi:type="arc"/>
      <path transform="translate(136.471296,65.572026)" d="m -54.972044,-3.3971226 c 0,2.6476937 -2.14638,4.79407356 -4.794074,4.79407356 -2.647692,0 -4.794072,-2.14637986 -4.794072,-4.79407356 0,-2.6476938 2.14638,-4.7940736 4.794072,-4.7940736 2.647694,0 4.794074,2.1463798 4.794074,4.7940736 z" sodipodi:ry="2.3970368" sodipodi:rx="2.3970368" sodipodi:cy="-1.6985613" sodipodi:cx="-29.883059" id="path5279-3" style="fill:#ffffff;fill-opacity:1;stroke:none" sodipodi:type="arc"/>
    </g>
    <path sodipodi:type="arc" style="fill:#ffffff;fill-opacity:1;stroke:none" id="path5279-2" sodipodi:cx="-29.883059" sodipodi:cy="-1.6985613" sodipodi:rx="2.3970368" sodipodi:ry="2.3970368" d="m -54.972044,-3.3971226 a 4.7940736,4.7940736 0 1 1 -9.588146,0 4.7940736,4.7940736 0 1 1 9.588146,0 z" transform="matrix(0.84315645,0,0,0.83074319,75.06903,78.3749)"/>
  </g>
</svg>
