<?xml version="1.0" encoding="UTF-8" standalone="no"?>
<!-- Created with Inkscape (http://www.inkscape.org/) -->
<svg xmlns:dc="http://purl.org/dc/elements/1.1/" xmlns:cc="http://creativecommons.org/ns#" xmlns:rdf="http://www.w3.org/1999/02/22-rdf-syntax-ns#" xmlns:svg="http://www.w3.org/2000/svg" xmlns="http://www.w3.org/2000/svg" xmlns:xlink="http://www.w3.org/1999/xlink" xmlns:sodipodi="http://sodipodi.sourceforge.net/DTD/sodipodi-0.dtd" xmlns:inkscape="http://www.inkscape.org/namespaces/inkscape" width="192" height="192" id="svg4453" version="1.1" inkscape:version="0.48.3.1 r9886" sodipodi:docname="icon.svg">
  <defs id="defs4455">
    <linearGradient id="linearGradient3775">
      <stop style="stop-color:#706f6f;stop-opacity:1" offset="0" id="stop3777"/>
      <stop style="stop-color:#1b1c1b;stop-opacity:1" offset="1" id="stop3779"/>
    </linearGradient>
    <radialGradient inkscape:collect="always" xlink:href="#linearGradient3775" id="radialGradient3781" cx="94" cy="96" fx="94" fy="96" r="94" gradientUnits="userSpaceOnUse"/>
  </defs>
  <sodipodi:namedview id="base" pagecolor="#ffffff" bordercolor="#666666" borderopacity="1.0" inkscape:pageopacity="0.0" inkscape:pageshadow="2" inkscape:zoom="3.1288632" inkscape:cx="-77.770525" inkscape:cy="21.946203" inkscape:document-units="px" inkscape:current-layer="layer1" showgrid="false" inkscape:window-width="1400" inkscape:window-height="959" inkscape:window-x="0" inkscape:window-y="30" inkscape:window-maximized="1"/>
  <metadata id="metadata4458">
    <rdf:RDF>
      <cc:Work rdf:about="">
        <dc:format>image/svg+xml</dc:format>
        <dc:type rdf:resource="http://purl.org/dc/dcmitype/StillImage"/>
        <dc:title/>
      </cc:Work>
    </rdf:RDF>
  </metadata>
  <g inkscape:label="Layer 1" inkscape:groupmode="layer" id="layer1">
    <rect style="fill:url(#radialGradient3781);fill-opacity:1;stroke:#9c9c9c;stroke-opacity:1" id="rect5252" width="184" height="184" x="2" y="4" ry="30.6820696"/>
    <g id="g5435" transform="matrix(0.84315645,0,0,0.83074319,14.0370824,11.38627)">
      <rect y="29.5064772" x="24.2899724" height="13.3211452" width="35.1924208" id="rect5266" style="fill:#ffffff;fill-opacity:1;stroke:none"/>
      <rect y="29.5064772" x="80.362688" height="13.3211452" width="35.1924208" id="rect5266-9" style="fill:#ffffff;fill-opacity:1;stroke:none"/>
    </g>
    <g id="g5430" transform="matrix(0.84315645,0,0,0.83074319,14.0370824,14.208612)">
      <rect y="59.113796" x="24.2899724" height="13.3211452" width="35.1924208" id="rect5266-0" style="fill:#ffffff;fill-opacity:1;stroke:none"/>
      <rect y="59.113796" x="80.362688" height="13.3211452" width="35.1924208" id="rect5266-6" style="fill:#ffffff;fill-opacity:1;stroke:none"/>
      <rect y="59.113796" x="135.814148" height="13.3211452" width="35.1924208" id="rect5266-3" style="fill:#ffffff;fill-opacity:1;stroke:none"/>
    </g>
    <g id="g5425" transform="matrix(0.84315645,0,0,0.83074319,14.0370824,17.0309696)">
      <path transform="translate(161.418416,102.175936)" d="m -109.944088,-6.7942452 c 0,5.2953874 -4.29276,9.58814712 -9.588148,9.58814712 -5.295384,0 -9.588144,-4.29275972 -9.588144,-9.58814712 0,-5.2953876 4.29276,-9.5881472 9.588144,-9.5881472 5.295388,0 9.588148,4.2927596 9.588148,9.5881472 z" sodipodi:ry="2.3970368" sodipodi:rx="2.3970368" sodipodi:cy="-1.6985613" sodipodi:cx="-29.883059" id="path5279" style="fill:#ffffff;fill-opacity:1;stroke:none" sodipodi:type="arc"/>
      <rect y="88.721116" x="80.362688" height="13.3211452" width="35.1924208" id="rect5266-6-4" style="fill:#ffffff;fill-opacity:1;stroke:none"/>
      <path transform="translate(272.942592,102.175936)" d="m -109.944088,-6.7942452 c 0,5.2953874 -4.29276,9.58814712 -9.588148,9.58814712 -5.295384,0 -9.588144,-4.29275972 -9.588144,-9.58814712 0,-5.2953876 4.29276,-9.5881472 9.588144,-9.5881472 5.295388,0 9.588148,4.2927596 9.588148,9.5881472 z" sodipodi:ry="2.3970368" sodipodi:rx="2.3970368" sodipodi:cy="-1.6985613" sodipodi:cx="-29.883059" id="path5279-7" style="fill:#ffffff;fill-opacity:1;stroke:none" sodipodi:type="arc"/>
    </g>
    <g id="g5439" transform="matrix(0.84315645,0,0,0.83074319,14.0370824,20.384336)">
      <path transform="translate(161.418416,131.144052)" d="m -109.944088,-6.7942452 c 0,5.2953874 -4.29276,9.58814712 -9.588148,9.58814712 -5.295384,0 -9.588144,-4.29275972 -9.588144,-9.58814712 0,-5.2953876 4.29276,-9.5881472 9.588144,-9.5881472 5.295388,0 9.588148,4.2927596 9.588148,9.5881472 z" sodipodi:ry="2.3970368" sodipodi:rx="2.3970368" sodipodi:cy="-1.6985613" sodipodi:cx="-29.883059" id="path5279-8" style="fill:#ffffff;fill-opacity:1;stroke:none" sodipodi:type="arc"/>
      <path transform="translate(217.491132,131.144052)" d="m -109.944088,-6.7942452 c 0,5.2953874 -4.29276,9.58814712 -9.588148,9.58814712 -5.295384,0 -9.588144,-4.29275972 -9.588144,-9.58814712 0,-5.2953876 4.29276,-9.5881472 9.588144,-9.5881472 5.295388,0 9.588148,4.2927596 9.588148,9.5881472 z" sodipodi:ry="2.3970368" sodipodi:rx="2.3970368" sodipodi:cy="-1.6985613" sodipodi:cx="-29.883059" id="path5279-1" style="fill:#ffffff;fill-opacity:1;stroke:none" sodipodi:type="arc"/>
      <path transform="translate(272.942592,131.144052)" d="m -109.944088,-6.7942452 c 0,5.2953874 -4.29276,9.58814712 -9.588148,9.58814712 -5.295384,0 -9.588144,-4.29275972 -9.588144,-9.58814712 0,-5.2953876 4.29276,-9.5881472 9.588144,-9.5881472 5.295388,0 9.588148,4.2927596 9.588148,9.5881472 z" sodipodi:ry="2.3970368" sodipodi:rx="2.3970368" sodipodi:cy="-1.6985613" sodipodi:cx="-29.883059" id="path5279-3" style="fill:#ffffff;fill-opacity:1;stroke:none" sodipodi:type="arc"/>
    </g>
    <path sodipodi:type="arc" style="fill:#ffffff;fill-opacity:1;stroke:none" id="path5279-2" sodipodi:cx="-29.883059" sodipodi:cy="-1.6985613" sodipodi:rx="2.3970368" sodipodi:ry="2.3970368" d="m -109.944088,-6.7942452 a 9.5881472,9.5881472 0 1 1 -19.176292,0 9.5881472,9.5881472 0 1 1 19.176292,0 z" transform="matrix(0.84315645,0,0,0.83074319,150.13806,156.7498)"/>
  </g>
</svg>
